<svg width="1056" height="1031" viewBox="0 0 1056 1031" fill="none" xmlns="http://www.w3.org/2000/svg">
    <path fill-rule="evenodd" clip-rule="evenodd" d="M897.3 797.8C957.5 797.8 1006.3 846.7 1006.3 907.1C1006.3 967.5 957.5 1016.4 897.3 1016.4C837.1 1016.4 788.3 967.5 788.3 907.1C788.3 846.7 837.1 797.8 897.3 797.8ZM889.3 15C973.1 15 1041 82.9 1041 166.7C1041 250.5 1040.6 179.3 1039.8 185.5L986.2 614.9C979.8 666.5 938 706.5 886.2 710.8C829 715.5 772 698.9 726.4 664L720.5 659.5C687.5 634.3 640.3 640.6 615.2 673.6C611.4 678.6 608.3 684 605.8 689.7L518.8 893.5C489.1 963.2 408.4 995.6 338.7 965.8C306.5 952.1 280.8 926.5 266.8 894.4L29.1 348.7C-8.3 262.9 31 163 116.8 125.7C127.2 121.2 138 117.7 149.1 115.3C253.1 93.1 355.5 159.5 377.6 263.5C378.6 268.2 379.4 272.8 380.1 277.5L406.4 469.3C409.3 490.7 429 505.6 450.4 502.7C463.6 500.9 474.9 492.5 480.5 480.5L510.4 416.4C526.8 381.3 559.6 356.6 597.8 350.6C636.1 344.6 674.9 357.9 701.4 386.3L710.5 396.1C720.1 406.3 736.2 406.9 746.4 397.3C752.2 391.9 755.1 384.1 754.3 376.2L734.9 185.9C726.2 100.7 788.3 24.5 873.5 15.8C878.7 15.3 884 15 889.2 15H889.3Z" fill="#FFEE54"/>
    <path d="M897.3 1030.4C829.4 1030.4 774.2 975.1 774.2 907.1C774.2 839.1 829.4 783.8 897.3 783.8C965.2 783.8 1020.4 839.1 1020.4 907.1C1020.4 975.1 965.2 1030.4 897.3 1030.4ZM897.3 811.9C844.9 811.9 802.3 854.6 802.3 907.1C802.3 959.6 844.9 1002.3 897.3 1002.3C949.7 1002.3 992.3 959.6 992.3 907.1C992.3 854.6 949.7 811.9 897.3 811.9ZM392.7 990.9C372.6 990.9 352.4 986.8 333.3 978.7C297.7 963.5 269.5 935.5 254 900L16.3 354.3C-24.1 261.5 18.5001 153.2 111.2 112.8C122.5 107.9 134.2 104.1 146.2 101.6C200.2 90.1 255.4 100.3 301.7 130.3C348 160.3 379.9 206.6 391.4 260.6C392.5 265.6 393.3 270.6 394 275.7L420.3 467.5C422.2 481.2 434.8 490.8 448.5 488.9C457 487.7 464.2 482.4 467.8 474.7L497.7 410.6C516.1 371.2 552.7 343.6 595.7 336.9C638.7 330.2 682 345.1 711.7 376.8L720.8 386.6C725.1 391.2 732.3 391.4 736.9 387.1C739.5 384.7 740.8 381.2 740.4 377.6L721 187.3C711.5 94.5 779.3 11.3 872.1 1.80002C877.8 1.20002 883.6 0.900024 889.3 0.900024C980.7 0.900024 1055 75.2 1055 166.6C1055 258 1054.6 180.4 1053.7 187.1L1000.1 616.5C996.6 644.6 983.4 670.9 962.9 690.6C942.4 710.2 915.6 722.3 887.3 724.7C880.5 725.3 873.7 725.5 867 725.5C813.2 725.5 760.9 707.9 717.8 675L711.9 670.5C698.9 660.6 682.9 656.3 666.7 658.5C650.5 660.7 636.2 669 626.3 682C623.2 686 620.7 690.4 618.7 695.1L531.7 898.9C515.8 936.1 486.5 964.8 449 979.9C430.8 987.2 411.7 990.9 392.6 990.9H392.7ZM189.4 125C177.1 125 164.6 126.3 152.1 128.9C141.9 131.1 132 134.3 122.4 138.4C43.9001 172.7 7.80005 264.5 42 343L279.8 888.7C292.4 917.6 315.3 940.4 344.4 952.8C374.7 965.7 408.1 966.1 438.7 953.8C469.2 941.5 493.2 918.1 506.1 887.9L593.1 684.1C596 677.3 599.8 670.9 604.2 665C618.7 646.1 639.6 633.9 663.2 630.7C686.8 627.5 710.2 633.7 729.2 648.2L735.1 652.7C778.1 685.5 831.4 701.1 885.2 696.7C907.1 694.9 927.8 685.5 943.6 670.4C959.4 655.3 969.6 634.9 972.4 613.1L1026 183.7C1026.7 178.1 1027.1 172.3 1027.1 166.7C1027.1 90.8 965.4 29.1 889.5 29.1C813.6 29.1 879.9 29.3 875.2 29.8C797.8 37.7 741.3 107.1 749.2 184.5L768.6 374.8C769.8 387 765.2 399.3 756.3 407.6C740.4 422.5 715.4 421.6 700.5 405.7L691.4 395.9C668.1 370.9 634 359.2 600.3 364.5C566.6 369.8 537.8 391.4 523.4 422.4L493.5 486.5C485.8 502.9 470.5 514.2 452.6 516.7C450.2 517 447.8 517.2 445.4 517.2C419.3 517.2 396.5 497.9 392.8 471.3L366.5 279.5C365.9 275.1 365.1 270.8 364.2 266.5C346.3 182.7 272 125.1 189.6 125.1L189.4 125Z" fill="#111111"/>
</svg>
